# xmcd
#
# Track frame offsets:
#	150
#	15363
#	28576
#	41786
#	55274
#	65983
#	77768
#	92524
#	106105
#	122374
#	135783
#	151588
#	164315
#	178656
#	194228
#	207296
#	222898
#	237279
#	252015
#	266886
#
# Disc length: 3717 seconds
#
# Revision: 0
# Processed by: cddbd v1.5.2PL0 Copyright (c) Steve Scherf et al.
# Submitted via: EasyCDDAExtractor 16.0.6.1
#
DISCID=0b0e8314
DTITLE=Λύδια Γιώτα - Τραγούδια 45 στροφές-Λύδια Γιώτα 5
DYEAR=2001
DGENRE=Λαϊκή
TTITLE0=Λύδια Γιώτα - Είναι η καρδιά σου άδεια [Αντώνης Κατινάρης]
TTITLE1=Λύδια Γιώτα - Είσαι φίνος χαρακτήρας [Νίκος Δαλέζιος]
TTITLE2=Λύδια Γιώτα - Εστένεψε ο δρόμος μας [Κώσ. Παπαδόπουλος-Ευτ. Παπαγιαννο
TTITLE2=πούλου]
TTITLE3=Λύδια Γιώτα - Τι κι αν έχω κλάψει [Κ. Καρουσάκης-Ευτυχία Παπαγιαννοπού
TTITLE3=λου]
TTITLE4=Λύδια Γιώτα - Σού τό 'χω πει πολλές φορές [Νίκος Καρανικόλας-Ηρακ. Παπ
TTITLE4=ασιδέρης]
TTITLE5=Λύδια Γιώτα - Ούτε πια θα σε ζητώ [Νίκος Καρανικόλας]
TTITLE6=Λύδια Γιώτα - Τι ρόλο παίζεις [Σταύρος Κάξος-Ηρακλής Παπασιδέρης]
TTITLE7=Λύδια Γιώτα - Άπονη καρδιά [Ηρακλής Παπασιδέρης]
TTITLE8=Λύδια Γιώτα - Μη μ' αφήσεις [Στέλιος Μακρυδάκης-Δημήτρης Ευσταθίου]
TTITLE9=Λύδια Γιώτα - Εγώ και εσύ [Σταύρος Κάξος-Χαράλαμπος Βασιλειάδης]
TTITLE10=Λύδια Γιώτα-Κάρολ Κατ.-Γαβριηλίδου Κ. - Πριν σού πω ώρα καλή [Μπάμπης
TTITLE10=Μαρκάκης]
TTITLE11=Λύδια Γιώτα - Γιατί με γέρασες [Στράτος Ατταλίδης-Ιωάν. Κόλλια]
TTITLE12=Λύδια Γιώτα - Μαύρες ώρες πέρασα [Σταύρος Ατταλίδης-Αργ. Βαμβακάρης]
TTITLE13=Λύδια Γιώτα - Σε χιονισμένες κορυφές [Σταύρος Ατταλίδης-Αργ. Βαμβακάρ
TTITLE13=ης]
TTITLE14=Λύδια Γιώτα-Χρηστάκης - Αγοράκι μου μεγάλο [Σταύρος Ατταλίδης-Αργ. Βα
TTITLE14=μβακάρης]
TTITLE15=Λύδια Γιώτα - Τώρα που φεύγεις [Νίκος Δαλέζιος-Εμμ. Αμπελιώτη]
TTITLE16=Λύδια Γιώτα-Κάρολ Κατ.-Γαβριηλίδου Κ. - Αμαρτωλή και ορφανή [Μπάμπης 
TTITLE16=Μαρκάκης]
TTITLE17=Λύδια Γιώτα - Κάνω τον αδιάφορο [Γεράσιμος Κλουβάτος-Π. Αλαφούζου]
TTITLE18=Λύδια Γιώτα - Μαύρη νά 'τανε η ώρα που σ' αντάμωσα [Μπάμπης Μαρκάκης]
TTITLE19=Λύδια Γιώτα - Ζήλεια, ζήλεια [Γιάννης Καραμπεσίνης]
EXTD=
EXTT0=
EXTT1=
EXTT2=
EXTT3=
EXTT4=
EXTT5=
EXTT6=
EXTT7=
EXTT8=
EXTT9=
EXTT10=
EXTT11=
EXTT12=
EXTT13=
EXTT14=
EXTT15=
EXTT16=
EXTT17=
EXTT18=
EXTT19=
PLAYORDER=
